<svg width="1009" height="254" viewBox="0 0 1009 254" fill="none" xmlns="http://www.w3.org/2000/svg">
<rect width="1009" height="254" fill="white"/>
<path d="M207.382 21.9703H24.2V144.218C24.2 211.341 115.791 231.525 115.791 231.525C115.791 231.525 207.382 211.341 207.382 144.218V21.9703ZM203.097 26.6355V144.218C203.097 158.595 198.432 171.734 189.863 183.445C182.532 193.156 172.44 201.725 159.968 209.056C140.545 220.671 120.742 225.717 116.172 226.86C111.887 225.717 92.0839 220.671 72.7565 209.056C59.9985 201.725 49.9063 192.775 42.4801 183.445C33.5304 171.734 28.8652 158.5 28.8652 144.218V26.6355H203.097Z" fill="#AB8D5D"/>
<path d="M137.879 61.1963V49.8665H126.264V60.3395H121.599V49.8665H109.602V60.3395H105.699V49.8665H94.0833V61.1011L99.891 70.8124C100.272 71.1933 100.272 71.5741 100.272 71.9549V123.273H105.699V104.612C105.699 100.327 110.745 96.4236 116.172 96.4236C121.599 96.4236 126.645 100.327 126.645 104.612V123.273H132.452V103.85C132.452 103.85 132.452 103.85 132.452 103.469V93.7578V86.8075V83.6656V72.0502C132.452 71.6693 132.452 71.2885 132.833 70.9076L137.879 61.1963Z" fill="#AB8D5D"/>
<path d="M95.2258 124.796V107.753L93.3217 108.896C92.56 109.277 91.7983 109.277 91.0366 108.896L88.2756 107.373C88.2756 107.373 88.2756 107.373 88.2756 107.753V114.323C88.2756 115.085 87.8948 115.465 87.5139 115.846C87.8948 115.846 87.8948 116.227 88.2756 116.227C91.4175 118.512 91.4175 122.035 91.0366 124.796C90.9414 124.796 95.2258 124.796 95.2258 124.796Z" fill="#AB8D5D"/>
<path d="M115.791 101.089C112.268 101.089 109.983 103.374 109.983 104.992V123.653H121.599V104.992C121.599 103.85 119.314 101.089 115.791 101.089Z" fill="#AB8D5D"/>
<path d="M47.1452 124.796C46.3836 123.273 46.0027 121.654 45.6219 119.75C45.2411 116.227 45.2411 112.8 45.2411 112.8C45.2411 112.038 46.0027 110.895 46.7644 110.895L51.8105 109.372L46.3836 105.468C45.6219 105.088 45.6219 104.326 45.6219 103.564V97.3757C45.6219 96.614 46.0027 95.8524 46.7644 95.4715L49.0494 94.329V91.8536L47.1452 91.0919C46.3836 90.7111 45.6219 89.9494 45.6219 89.1877V81.8566C45.6219 80.7141 46.7644 79.5716 47.9069 79.5716H54.8572C54.8572 77.6675 54.8572 75.2872 55.238 73.0022C55.9997 70.2412 57.523 67.1945 58.3799 65.6711L57.999 62.9101C57.999 62.1484 57.999 61.7676 58.3799 61.0059C58.7607 60.6251 59.5224 60.2442 59.9032 60.2442H63.8068C64.1876 60.2442 64.5685 60.2442 64.9493 60.6251L74.2798 66.4328H78.5642C79.3258 66.4328 79.7067 66.8136 80.0875 67.1945C80.4683 67.5753 80.8492 68.337 80.8492 68.7178L80.4683 76.0489C80.4683 76.8106 80.0875 77.1914 79.7067 77.5722H82.4677C83.2294 77.5722 83.6102 77.9531 83.9911 78.3339L85.1336 79.4764L85.8952 78.7148L87.4186 75.192C87.7994 74.4304 88.5611 74.0495 89.3228 74.0495H95.2257V72.8118L89.418 63.1005C89.0371 62.7197 89.0371 62.3388 89.0371 61.958V47.9623C89.0371 46.8198 90.1796 45.6773 91.3222 45.6773H105.699H110.364H122.36H127.025H141.021C142.164 45.6773 143.306 46.8198 143.306 47.9623V61.958C143.306 62.3388 143.306 62.7197 142.925 63.1005L137.118 72.8118V73.9543H142.925C143.687 73.9543 144.449 74.3351 144.83 75.0968L146.353 78.6195L147.115 79.3812L148.257 78.2387C148.638 77.8579 149.4 77.477 149.78 77.477H152.541C152.161 77.0962 151.78 76.7154 151.78 75.9537L151.399 68.6226C151.399 67.8609 151.78 67.4801 152.161 67.0993C152.541 66.7184 153.303 66.3376 153.684 66.3376H157.968L167.299 60.5299C167.68 60.149 168.06 60.149 168.441 60.149H172.345C173.107 60.149 173.487 60.5299 173.868 60.9107C174.249 61.2915 174.63 62.0532 174.249 62.8149L173.868 65.5759C174.63 67.0993 176.153 69.8603 177.01 72.907C177.391 74.8112 177.391 77.5722 177.391 79.4764H184.341C185.484 79.4764 186.626 80.6189 186.626 81.7614V89.0925C186.626 89.8542 186.245 90.6159 185.103 90.9967L182.818 91.7584V93.6625L185.103 94.8051C185.865 95.1859 186.245 95.9476 186.245 96.7092V102.898C186.245 103.659 185.865 104.421 185.484 104.802L180.057 108.706L185.103 110.229C185.865 110.61 186.626 111.371 186.626 112.133C186.626 112.133 186.626 115.656 186.245 119.083C185.865 120.987 185.484 122.987 184.722 124.129H192.91V37.4893H38.9573V124.415H47.1452V124.796Z" fill="#AB8D5D"/>
<path d="M143.306 116.227C143.687 116.227 143.687 115.846 144.068 115.846C143.687 115.465 143.306 114.704 143.306 114.323V107.753C143.306 107.753 143.306 107.753 143.306 107.373L140.545 108.896C139.784 109.277 139.022 109.277 138.26 108.896L136.356 107.753V124.796H141.021C140.26 122.035 140.641 118.607 143.306 116.227Z" fill="#AB8D5D"/>
<path d="M173.202 171.353C172.059 171.353 170.917 170.21 170.917 169.068V154.311C170.917 153.168 170.155 152.026 169.394 150.788C168.632 150.026 167.109 148.884 164.728 148.884C161.206 148.884 159.301 151.645 158.921 154.311V168.973C158.921 169.734 158.54 170.115 158.159 170.496C157.778 170.877 157.016 171.258 156.636 171.258H143.021C141.878 171.258 140.736 170.115 140.736 168.973V154.215C140.736 153.073 139.974 151.93 139.212 150.693C138.451 149.931 136.927 148.788 134.547 148.788C133.024 148.788 131.786 149.169 130.644 150.312L141.497 206.58C157.016 199.63 175.297 188.3 185.293 171.258C185.198 171.353 173.202 171.353 173.202 171.353Z" fill="#AB8D5D"/>
<path d="M137.498 208.199L121.979 129.461H109.602L94.0833 208.199V208.58C104.937 212.864 113.506 215.149 115.791 215.911C118.076 215.149 127.026 212.864 137.498 208.199Z" fill="#AB8D5D"/>
<path d="M100.653 150.407C99.5101 149.645 98.3676 148.884 96.749 148.884C94.464 148.884 93.2263 150.026 92.0838 150.788C90.9413 151.93 90.5604 153.073 90.5604 154.311V168.973C90.5604 170.115 89.4179 171.258 88.2754 171.258H74.6606C73.8989 171.258 73.5181 170.877 73.1372 170.496C72.7564 170.115 72.3756 169.354 72.3756 168.973V154.215C71.9947 151.454 70.0905 148.788 66.5678 148.788C64.2828 148.788 63.0451 149.931 61.9026 150.693C60.7601 151.835 60.3792 152.978 60.3792 154.215V168.973C60.3792 170.115 59.2367 171.258 58.0942 171.258H46.2883C55.9996 188.681 74.5654 200.011 89.7036 206.58L100.653 150.407Z" fill="#AB8D5D"/>
<path d="M192.625 129.08H126.645L129.787 145.742C131.31 144.98 132.929 144.599 134.452 144.599C137.594 144.599 140.26 145.742 142.164 147.741C144.068 149.741 145.306 152.026 145.306 154.311V166.688H154.255V154.311C154.255 154.311 154.255 154.311 154.255 153.93C154.636 148.503 159.301 144.599 164.347 144.218C167.489 144.218 170.155 145.361 172.059 147.36C173.964 149.265 175.201 151.645 175.201 153.93V166.307H187.578C190.72 159.738 192.625 151.93 192.625 143.457V129.08C192.625 129.08 193.005 129.08 192.625 129.08Z" fill="#AB8D5D"/>
<path d="M55.9997 166.688V154.311C55.9997 152.026 57.1422 149.645 59.1416 147.741C61.0457 145.837 64.1876 144.599 66.8535 144.599C72.2804 144.599 76.5648 148.884 76.9456 154.311C76.9456 154.311 76.9456 154.311 76.9456 154.691V167.069H86.2761V154.691C86.2761 152.406 87.4186 150.026 89.418 148.122C91.4174 146.218 94.464 144.98 97.1299 144.98C98.6532 144.98 100.272 145.361 101.795 146.123L104.937 129.461H38.9573V144.218C38.9573 152.787 40.8615 160.499 44.0033 167.069L55.9997 166.688Z" fill="#AB8D5D"/>
<path d="M61.4265 120.131H64.9492C65.3301 120.511 65.3301 121.273 65.3301 121.654C65.3301 122.035 65.3301 122.416 65.3301 122.416C65.3301 123.177 65.3301 123.939 64.9492 124.701H52.5721C50.6679 123.558 49.811 118.512 49.811 114.228L55.2379 112.8C55.9996 112.419 56.7613 111.657 56.7613 110.515V108.23C56.7613 107.468 56.3804 106.706 55.9996 106.325L49.811 102.041V98.1374L52.096 96.9949C52.8577 96.614 53.2386 95.8523 53.2386 95.0907V90.0446C53.2386 89.2829 52.8577 88.5213 51.7152 88.1404L49.811 87.3788V83.2848H55.6188L58.3798 87.95V94.5194L56.4757 100.708C56.0948 101.47 56.4757 102.231 56.8565 102.612C57.2373 102.993 57.999 103.374 58.7607 103.374H60.284C61.4265 103.374 62.1882 102.612 62.569 101.47C62.569 100.327 63.3307 97.5661 63.7115 96.4236C64.0924 95.2811 65.6157 93.2817 66.8534 92.1392C67.6151 91.3775 67.6151 90.235 66.8534 88.9973L59.1415 80.0477C59.1415 78.9052 58.7607 75.3824 59.1415 73.4783C59.5223 71.1933 61.4265 68.0514 61.9026 66.9089C62.2834 66.528 62.2834 65.7663 62.2834 65.3855V64.6238H62.6642L71.9947 70.4316C72.3755 70.8124 72.7564 70.8124 73.1372 70.8124H75.4222V74.3351L72.2803 75.4777C71.5187 75.4777 70.757 76.2393 70.757 77.3818V79.6668C70.757 80.8094 71.8995 81.9519 73.042 81.9519H80.7539L82.6581 83.856C83.4198 84.6177 84.5623 84.6177 85.8 84.2369C85.8 84.2369 89.3227 81.4758 89.3227 81.095L90.4652 78.3339H95.2257V83.7608V86.5219C95.2257 86.5219 87.0377 89.2829 86.276 89.6638C85.8952 90.0446 85.5144 92.4248 85.5144 93.1865C85.5144 93.9482 85.5144 93.9482 86.276 94.7098C86.276 94.7098 88.561 96.614 89.4179 96.9949L91.7029 94.7098L94.8448 95.0907V102.803L91.7029 104.707L82.3725 98.1374C81.23 97.3757 80.0875 97.7565 79.2306 98.5182L77.7072 100.422C76.9456 101.184 76.9456 102.707 78.0881 103.564L83.515 108.61V112.895L78.4689 114.418C77.7072 114.799 77.3264 115.561 77.3264 116.322V117.084C77.3264 118.226 78.4689 119.369 79.6114 119.369H86.1808C87.3233 120.892 86.9425 122.892 86.5617 124.034H71.5187C71.1378 123.653 70.757 122.511 70.757 121.273C70.757 120.892 70.757 120.892 70.757 120.511C70.757 118.988 70.757 117.37 71.1378 116.608L74.6605 111.943C75.0414 111.562 75.0414 111.181 75.0414 110.8V108.515C75.0414 107.753 74.6605 106.992 74.2797 106.611C73.1372 106.992 72.3755 106.992 71.5187 106.992L65.7109 109.277C64.9492 109.658 64.5684 110.038 64.1876 111.181L63.8067 113.466L60.6648 114.608C59.9032 114.608 59.1415 115.37 59.1415 116.513V117.274C59.1415 118.988 60.284 120.131 61.4265 120.131Z" fill="#AB8D5D"/>
<path d="M170.06 120.131H166.632C166.252 120.511 166.252 121.273 166.252 121.654C166.252 122.035 166.252 122.416 166.252 122.416C166.252 123.177 166.252 123.939 166.632 124.701H179.39C181.295 123.558 182.151 118.512 182.151 114.228L176.725 112.704C175.963 112.323 175.201 111.562 175.201 110.419V108.134C175.201 107.373 175.582 106.611 175.963 106.23L182.151 101.946V98.0422L179.866 96.8996C179.105 96.5188 178.724 95.7571 178.724 94.9955V89.9494C178.724 89.1877 179.105 88.4261 180.247 88.0452L182.151 87.2836V83.2848H176.344L173.202 87.95V94.5194L175.106 100.708C175.487 101.47 175.106 102.231 174.725 102.612C174.344 102.993 173.583 103.374 172.821 103.374H171.298C170.155 103.374 169.393 102.612 169.013 101.47C169.013 100.327 168.251 97.5661 167.87 96.4236C167.489 95.2811 165.966 93.2817 164.728 92.1392C163.967 91.3775 163.967 90.235 164.728 88.9973L172.44 80.0477C172.44 78.9052 172.821 75.3824 172.44 73.4783C172.059 71.1933 170.155 68.0514 169.679 66.9089C169.298 66.528 169.298 65.7663 169.298 65.3855V64.6238H168.917L159.968 70.4316C159.587 70.8124 159.206 70.8124 158.825 70.8124H156.159V74.3351L159.301 75.4777C160.063 75.8585 160.825 76.6202 160.825 77.7627V80.0477C160.825 81.1902 159.682 82.3327 158.54 82.3327H150.828L148.924 83.856C148.162 84.6177 147.019 84.6177 145.782 84.2369C145.782 84.2369 142.259 81.4758 142.259 81.095L141.116 78.3339H136.451V83.7608V86.5219C136.451 86.5219 144.639 89.2829 145.401 89.6638C145.782 90.0446 146.162 92.4248 146.162 93.1865C146.162 93.9482 146.162 93.9482 145.401 94.7098C145.401 94.7098 143.116 96.614 142.259 96.9949L139.974 94.7098L136.832 95.0907V102.803L139.974 104.707L149.304 98.1374C150.447 97.3757 151.589 97.7565 152.446 98.5182L153.97 100.422C154.731 101.184 154.731 102.707 153.589 103.564L148.162 108.61V112.895L153.589 115.18C154.35 115.561 154.731 116.322 154.731 117.084V117.846C154.731 118.988 153.589 120.131 152.446 120.131H145.686C144.544 121.654 144.925 123.653 145.306 124.796H160.444C160.825 124.415 161.205 123.273 161.205 122.035C161.205 121.654 161.205 121.654 161.205 121.273C161.205 119.75 161.205 118.131 160.825 117.37L157.302 112.704C156.921 112.323 156.921 111.943 156.921 111.562V109.277C156.921 108.515 157.302 107.753 157.683 107.373C158.444 106.992 159.206 106.992 159.968 106.992L165.775 109.277C166.537 109.658 166.918 110.038 167.299 111.181L167.68 113.466L170.822 114.608C171.583 114.989 172.345 115.751 172.345 116.894V117.655C172.44 118.988 171.678 120.131 170.06 120.131Z" fill="#AB8D5D"/>
<path d="M344.673 139.934C345.815 141.838 347.815 142.695 350.1 142.695C353.623 142.695 355.527 139.553 355.527 139.553L411.414 68.5274C416.08 63.8621 420.364 67.7657 420.364 67.7657C424.648 72.4309 421.506 76.7153 421.506 76.7153L409.129 92.6152C407.987 93.7577 407.606 95.3763 407.606 96.8996C407.606 98.423 407.987 99.6607 409.129 100.803L421.506 116.703L460.733 66.6232L445.214 46.4389L442.452 42.5353C439.691 39.0126 434.265 37.8701 434.265 37.8701H410.557C404.369 37.8701 400.846 42.1545 400.846 42.1545L334.486 126.7L344.673 139.934Z" fill="#75293D"/>
<path d="M342.007 96.4236L326.488 76.2393C323.346 71.1932 328.011 67.2897 328.011 67.2897C333.819 63.7669 337.342 69.1938 337.342 69.1938L350.576 85.8554L366.095 66.0519L348.291 43.2018C344.006 37.0132 337.437 38.1557 337.437 38.1557H316.11C309.16 38.1557 306.399 42.4401 306.399 42.4401L287.738 66.1471L326.964 116.227L342.007 96.4236Z" fill="#75293D"/>
<path d="M402.846 113.561C402.846 113.561 400.941 110.8 397.419 110.8C393.896 110.8 392.373 113.085 392.373 113.085L336.485 185.253C331.82 190.3 327.154 186.396 327.154 186.396C322.87 181.731 326.393 177.446 326.393 177.446L338.77 161.166C339.912 160.023 340.293 158.405 340.293 156.881C340.293 155.358 339.912 154.12 338.77 152.978L326.393 137.078L286.786 187.538L308.874 215.435H343.435L412.842 126.605L402.846 113.561Z" fill="#75293D"/>
<path d="M405.607 156.976L421.507 177.542C425.029 182.588 420.745 186.491 420.745 186.491C414.556 190.776 411.034 184.587 411.034 184.587L397.8 167.545L382.281 187.348L404.369 215.625H438.549L460.637 187.348L421.031 136.887L405.607 156.976Z" fill="#75293D"/>
<path d="M460.257 135.269C455.591 135.269 451.688 131.365 451.688 126.7C451.688 122.035 455.591 118.131 460.257 118.131C464.922 118.131 468.825 122.035 468.825 126.7C468.825 131.365 464.922 135.269 460.257 135.269ZM460.257 111.181C451.307 111.181 444.357 118.131 444.357 127.081C444.357 135.65 451.307 142.981 460.257 142.981C469.206 142.981 476.156 136.03 476.156 127.081C476.156 118.131 469.206 111.181 460.257 111.181Z" fill="#75293D"/>
<path d="M373.807 13.7823C378.472 13.7823 382.376 17.6859 382.376 22.3511C382.376 27.0163 378.472 30.9199 373.807 30.9199C369.142 30.9199 365.238 27.0163 365.238 22.3511C365.238 17.6859 369.142 13.7823 373.807 13.7823ZM373.807 37.8701C382.757 37.8701 389.707 30.9199 389.707 21.9703C389.707 13.4015 382.757 6.07037 373.807 6.07037C364.857 6.45121 357.907 13.4015 357.907 22.3511C357.907 30.9199 364.857 37.8701 373.807 37.8701Z" fill="#75293D"/>
<path d="M278.693 126.7C278.693 122.035 282.597 118.131 287.262 118.131C291.927 118.131 295.831 122.035 295.831 126.7C295.831 131.365 291.927 135.269 287.262 135.269C282.216 135.269 278.693 131.365 278.693 126.7ZM302.781 126.7C302.781 118.131 295.831 110.8 286.881 110.8C277.931 110.8 270.981 117.75 270.981 126.7C270.981 135.269 277.931 142.6 286.881 142.6C295.831 142.6 302.781 135.65 302.781 126.7Z" fill="#75293D"/>
<path d="M373.807 239.999C369.142 239.999 365.238 236.095 365.238 231.43C365.238 226.765 369.142 222.861 373.807 222.861C378.472 222.861 382.376 226.765 382.376 231.43C382.28 236.095 378.472 239.999 373.807 239.999ZM373.807 215.53C364.857 215.53 357.907 222.48 357.907 231.43C357.907 239.999 364.857 247.33 373.807 247.33C382.757 247.33 389.707 240.379 389.707 231.43C389.707 222.956 382.661 215.53 373.807 215.53Z" fill="#75293D"/>
<path d="M524.332 99.9463C524.332 91.3775 530.521 83.6656 539.851 83.6656C545.278 83.6656 548.42 85.1889 551.467 87.95L549.182 90.711C546.897 88.8069 544.135 87.1883 539.851 87.1883C532.901 87.1883 527.855 92.9961 527.855 99.9463C527.855 107.277 532.52 112.704 540.232 112.704C543.755 112.704 547.182 111.181 549.182 109.562V101.85H539.851V98.7086H552.609V111.086C549.848 113.847 545.278 115.751 540.232 115.751C530.521 116.227 524.332 108.896 524.332 99.9463Z" fill="#75293D"/>
<path d="M592.597 99.9463C592.597 92.9961 587.551 87.1883 580.22 87.1883C573.269 87.1883 568.223 92.9961 568.223 99.9463C568.223 106.897 573.269 112.704 580.601 112.704C587.932 112.704 592.597 107.373 592.597 99.9463ZM564.32 99.9463C564.32 91.3775 570.889 83.6656 580.22 83.6656C589.55 83.6656 596.12 90.9967 596.12 99.5655C596.12 108.134 589.55 115.846 580.22 115.846C570.889 116.227 564.32 108.896 564.32 99.9463Z" fill="#75293D"/>
<path d="M622.111 101.47H612.4V112.323H622.873C627.538 112.323 630.68 110.419 630.68 106.897C630.585 103.469 627.538 101.47 622.111 101.47ZM628.681 92.6152C628.681 89.4733 626.396 87.5691 621.731 87.5691H612.4V98.4229H621.731C625.92 98.4229 628.681 96.4236 628.681 92.6152ZM608.877 84.4272H622.111C625.634 84.4272 628.3 85.5697 630.299 87.1883C631.442 88.3308 632.204 90.3302 632.204 92.2344C632.204 96.1379 629.919 98.4229 627.157 99.5655C631.061 100.708 633.727 102.707 633.727 106.897C633.727 112.323 629.062 115.465 622.492 115.465H608.497V84.4272H608.877Z" fill="#75293D"/>
<path d="M650.008 84.4272H646.485V115.465H650.008V84.4272Z" fill="#75293D"/>
<path d="M664.384 84.4272H686.854V87.5691H667.907V98.4229H684.949V101.47H667.907V112.323H687.234V115.465H664.384V84.4272Z" fill="#75293D"/>
<path d="M712.084 100.327C716.749 100.327 720.272 98.0421 720.272 93.7577C720.272 89.8541 717.13 87.5691 712.084 87.5691H702.373V100.327H712.084ZM698.945 84.4272H712.56C716.463 84.4272 719.51 85.5697 721.51 87.5691C723.033 89.0925 723.795 91.4727 723.795 93.7577C723.795 98.8038 720.272 101.946 715.226 102.707L724.937 115.465H720.653L711.703 103.469H702.753V115.465H699.231V84.4272C699.326 84.4272 698.945 84.4272 698.945 84.4272Z" fill="#75293D"/>
<path d="M736.172 84.4272H739.599L759.022 109.277V84.4272H762.544V115.465H759.783L739.599 89.8541V115.465H736.172V84.4272Z" fill="#75293D"/>
<path d="M803.294 99.9463C803.294 92.9961 798.248 87.1883 790.917 87.1883C783.966 87.1883 778.92 92.9961 778.92 99.9463C778.92 106.897 783.966 112.704 791.298 112.704C798.629 112.704 803.294 107.373 803.294 99.9463ZM775.302 99.9463C775.302 91.3775 781.872 83.6656 791.202 83.6656C800.533 83.6656 807.102 90.9967 807.102 99.5655C807.102 108.134 800.533 115.846 791.202 115.846C781.586 116.227 775.302 108.896 775.302 99.9463Z" fill="#75293D"/>
<path d="M839.378 87.5691V112.419H846.709C854.516 112.419 859.467 106.992 859.467 100.041C859.467 93.0912 854.421 87.6643 846.709 87.6643C846.709 87.5691 839.378 87.5691 839.378 87.5691ZM835.855 84.4272H846.709C856.42 84.4272 863.371 90.9967 863.371 99.9463C863.371 108.896 856.801 115.465 846.709 115.465H835.855V84.4272Z" fill="#75293D"/>
<path d="M874.701 84.4272H897.17V87.5691H878.128V98.4229H895.171V101.47H878.128V112.323H897.17V115.465H874.701V84.4272Z" fill="#75293D"/>
<path d="M925.447 84.4272H928.97V112.323H946.393V115.465H925.447V84.4272Z" fill="#75293D"/>
<path d="M976.669 104.231L969.719 88.3308L962.769 104.231H976.669ZM968.196 84.0464H971.338L985.714 115.465H981.811L978.288 107.277H961.245L957.342 115.465H953.819L968.196 84.0464Z" fill="#75293D"/>
<path d="M523.951 153.454C523.951 144.504 530.521 137.173 540.232 137.173C546.04 137.173 549.562 139.077 552.609 141.838L548.325 146.884C546.04 144.599 543.279 143.362 540.137 143.362C534.71 143.362 531.187 147.646 531.187 153.073C531.187 158.5 535.091 162.784 540.137 162.784C543.659 162.784 545.944 161.261 548.325 159.261L552.609 163.546C549.467 167.069 546.04 168.973 539.851 168.973C530.521 169.83 523.951 162.403 523.951 153.454Z" fill="#75293D"/>
<path d="M564.986 137.935H558.036V168.973H564.986V137.935Z" fill="#75293D"/>
<path d="M573.174 155.834V138.03H580.124V155.834C580.124 160.88 582.885 163.546 586.694 163.546C590.978 163.546 593.263 160.785 593.263 156.215V138.411H600.213V155.834C600.213 165.164 594.787 169.83 586.599 169.83C578.22 169.83 573.174 165.164 573.174 155.834Z" fill="#75293D"/>
<path d="M620.112 162.784C625.539 162.784 629.443 158.881 629.443 153.454C629.443 148.027 625.539 144.123 620.112 144.123H614.685V163.165L620.112 162.784ZM608.116 137.935H620.112C629.823 137.935 636.774 144.504 636.774 153.454C636.774 162.403 630.204 168.973 620.112 168.973H608.116V137.935Z" fill="#75293D"/>
<path d="M659.338 156.215L655.054 146.123L650.769 156.215H659.338ZM651.912 137.554H658.1L671.334 168.973H664.384L661.623 162.023H648.389L645.628 168.973H638.678L651.912 137.554Z" fill="#75293D"/>
<path d="M688.853 162.784C694.28 162.784 698.183 158.881 698.183 153.454C698.183 148.027 694.28 144.123 688.853 144.123H683.426V163.165L688.853 162.784ZM676.761 137.935H688.758C698.469 137.935 705.419 144.504 705.419 153.454C705.419 162.403 698.85 168.973 688.758 168.973H676.761V137.935Z" fill="#75293D"/>
<path d="M737.695 162.784C743.122 162.784 747.025 158.881 747.025 153.454C747.025 148.027 743.122 144.123 737.695 144.123H732.268V163.165L737.695 162.784ZM725.318 137.935H737.314C747.025 137.935 753.976 144.504 753.976 153.454C753.976 162.403 747.406 168.973 737.314 168.973H725.318V137.935Z" fill="#75293D"/>
<path d="M760.545 137.935H784.252V144.218H767.591V150.407H782.348V156.596H767.591V163.165H784.252V168.973H760.545V137.935Z" fill="#75293D"/>
<path d="M804.436 137.935H811.767L819.955 151.169L828.143 137.935H835.474V168.973H828.905V148.884L819.955 162.022L811.006 148.884V168.973H804.436V137.935Z" fill="#75293D"/>
<path d="M856.801 127.462L862.609 130.223L856.801 135.65H851.755L856.801 127.462ZM843.662 137.935H867.369V144.123H850.708V150.312H865.465V156.5H850.708V163.07H867.75V169.258H844.043L843.662 137.935Z" fill="#75293D"/>
<path d="M882.793 153.073L872.32 137.935H880.508L887.078 148.027L893.647 137.935H901.454L890.981 153.073L901.835 168.973H893.647L886.697 158.5L879.651 168.973H871.94L882.793 153.073Z" fill="#75293D"/>
<path d="M914.212 137.935H907.262V168.973H914.212V137.935Z" fill="#75293D"/>
<path d="M920.401 153.454C920.401 144.504 926.97 137.173 936.682 137.173C942.489 137.173 946.012 139.077 949.059 141.838L944.774 146.884C942.489 144.599 939.728 143.362 936.586 143.362C931.159 143.362 927.637 147.646 927.637 153.073C927.637 158.5 931.54 162.784 936.586 162.784C940.109 162.784 942.394 161.261 944.774 159.261L949.059 163.546C945.917 167.069 942.489 168.973 936.301 168.973C927.446 169.83 920.401 162.403 920.401 153.454Z" fill="#75293D"/>
<path d="M978.669 153.454C978.669 148.027 974.765 143.362 969.338 143.362C963.911 143.362 960.008 147.646 960.008 153.073C960.008 158.5 963.911 162.784 969.338 162.784C974.765 163.165 978.669 158.881 978.669 153.454ZM952.677 153.454C952.677 144.504 959.627 137.173 969.338 137.173C979.049 137.173 986 144.504 986 153.073C986 162.022 979.049 169.354 969.338 169.354C959.627 169.354 952.677 162.403 952.677 153.454Z" fill="#75293D"/>
</svg>
